<?xml version="1.0" encoding="utf-8"?>
<!-- Generator: Adobe Illustrator 22.0.1, SVG Export Plug-In . SVG Version: 6.00 Build 0)  -->
<svg version="1.1" id="Layer_1" xmlns="http://www.w3.org/2000/svg" xmlns:xlink="http://www.w3.org/1999/xlink" x="0px" y="0px"
	 viewBox="0 0 504.1 504.1" style="enable-background:new 0 0 504.1 504.1;" xml:space="preserve">
<style type="text/css">
	.st0{fill:#046870;}
	.st1{opacity:0.2;}
	.st2{fill:#D6D6D6;}
	.st3{fill:#CACACA;}
	.st4{fill:#078282;}
	.st5{fill:#E0E0E0;}
	.st6{fill:#55A3A0;}
	.st7{fill:#D1D1D1;}
	.st8{fill:#EBEBEB;}
	.st9{fill:#DBDBDB;}
	.st10{fill:#F5F2E9;}
	.st11{fill:#D6BAAE;}
	.st12{fill:#E6E6E6;}
	.st13{opacity:0.1;}
	.st14{fill:#EFEFEF;}
	.st15{fill:#DDDDDD;}
	.st16{fill:#BFBFBF;}
</style>
<path class="st0" d="M27.6,279.9l44.6-78.1c4.6-8.1,15-10.8,23.1-6.2l329.4,192c8.1,4.6,10.8,15,6.2,23.1l-44.6,78.1
	c-4.6,8.1-15,10.8-23.1,6.2L33.8,303C25.7,298.4,23,288,27.6,279.9z"/>
<path class="st1" d="M72.6,203.3l-0.8-0.8L63,218.4l252.8,225.5C315.8,443.8,72.6,203.3,72.6,203.3z"/>
<path class="st2" d="M386.2,488.9l44.6-78.1c4.6-8.1,1.9-18.5-6.2-23.1l-104.3-60.8l-65,105.4L363.2,495
	C371.2,499.6,381.6,497,386.2,488.9z"/>
<path class="st3" d="M274.8,405.8l-2,2.8l44.5,39.8L274.8,405.8z"/>
<path class="st4" d="M72.6,179.9l63.1-62.7c6.5-6.5,17.3-6.5,23.9,0l268.6,265.9c6.5,6.5,6.5,16.9,0,23.5l-63.1,62.7
	c-6.5,6.5-17.3,6.5-23.9,0L72.6,203.3C66.1,196.8,66.1,186.4,72.6,179.9z"/>
<path class="st1" d="M131.5,121.4l-14.6,14.2l169.3,254C286.2,389.6,131.5,121.4,131.5,121.4z"/>
<path class="st5" d="M428.2,406.5c6.5-6.5,6.5-16.9,0-23.5L337,293l-87.7,85l92,91.2c6.5,6.5,17.3,6.5,23.9,0
	C365.1,469.2,428.2,406.5,428.2,406.5z"/>
<path class="st6" d="M137.7,98.3l78.1-45c8.1-4.6,18.5-1.9,23.1,6.2l191.6,332.5c4.6,8.1,1.9,18.5-6.2,23.1l-78.1,45
	c-8.1,4.6-18.5,1.9-23.1-6.2L131.5,121.4C126.9,113.3,129.6,102.9,137.7,98.3z"/>
<path class="st7" d="M268.5,359.2l-1.5,1.5l19.2,28.9L268.5,359.2z"/>
<path class="st8" d="M346.6,460.4l78.1-45c8.1-4.6,10.8-15,6.2-23.1l-67-116.2l-105.8,65.4l65,112.7
	C328.1,462.3,338.5,465,346.6,460.4z"/>
<path class="st1" d="M222.3,60.2c-0.8-3.1-0.8-6.2,0-9.2c-2.3,0.4-4.2,1.2-6.5,2.3L200,62.5L308.5,378L222.3,60.2z M345.8,434.2h0.8
	v-0.4L345.8,434.2z"/>
<path class="st9" d="M345.8,434.2h0.8v-0.4L345.8,434.2z M292.7,319.9l-3.5,2.3l19.2,55.8L292.7,319.9z"/>
<path class="st10" d="M233.9,39.8l87-23.1c8.9-2.3,18.1,2.7,20.8,11.5l98.9,363.3c2.3,8.9-3.1,18.1-11.9,20.4l-87,23.1
	c-8.9,2.3-18.1-2.7-20.8-11.5L222.3,60.2C219.6,51.3,225,42.1,233.9,39.8z"/>
<path class="st11" d="M341.6,4.8h79.7c11.2,0,20,8.9,20,20v375.6c0,11.2-8.9,20-20,20h-79.7c-11.2,0-20-8.9-20-20V24.8
	C321.6,13.6,330.4,4.8,341.6,4.8z"/>
<path class="st12" d="M288.5,304.5l32.3,118.9c2.3,8.9,11.5,14.2,20.8,11.5l87-23.1c8.9-2.3,14.2-11.5,11.9-20.4l-32.3-117.4
	L288.5,304.5z"/>
<path class="st13" d="M321.6,24.8c0-3.1,0.8-5.8,1.9-8.1c-0.8,0-1.9,0-2.7,0.4l-20.4,5.4l21.2,306.7V24.8z"/>
<path class="st14" d="M321.6,273.8v126.6c0,11.2,8.9,20,20,20h79.7c11.2,0,20-8.9,20-20V273.8H321.6z"/>
<path class="st15" d="M321.6,296.1l-2.3,0.8l2.3,32.3V296.1z"/>
<path class="st16" d="M340.8,293.4v19.2h65.4v-19.2H340.8z M340.8,393.4h26.9v-11.5h-26.9V393.4z M340.8,366.5h26.9V355h-26.9V366.5
	z M340.8,339.6h26.9V328h-26.9V339.6z M408.2,374.2c5.4,0,9.6,4.2,9.6,9.6s-4.2,9.6-9.6,9.6c-5.4,0-9.6-4.2-9.6-9.6
	C398.6,378.4,402.8,374.2,408.2,374.2z"/>
</svg>
