<?xml version="1.0" encoding="utf-8"?>
<!-- Generator: Adobe Illustrator 22.0.1, SVG Export Plug-In . SVG Version: 6.00 Build 0)  -->
<svg version="1.1" id="Layer_1" xmlns="http://www.w3.org/2000/svg" xmlns:xlink="http://www.w3.org/1999/xlink" x="0px" y="0px"
	 viewBox="0 0 504.1 504.1" style="enable-background:new 0 0 504.1 504.1;" xml:space="preserve">
<style type="text/css">
	.st0{fill:#C6C6C6;}
	.st1{opacity:0.2;enable-background:new    ;}
	.st2{fill:#D6D6D6;}
	.st3{fill:#CACACA;}
	.st4{fill:#E0E0E0;}
	.st5{fill:#D1D1D1;}
	.st6{fill:#EBEBEB;}
	.st7{fill:#DBDBDB;}
	.st8{fill:#E6E6E6;}
	.st9{fill:#EFEFEF;}
	.st10{fill:#DDDDDD;}
	.st11{fill:#BFBFBF;}
</style>
<path class="st0" d="M41.5,281.6l45.7-80c4.7-8.3,15.4-11,23.6-6.3l337.1,196.5c8.3,4.7,11,15.4,6.3,23.6l-45.7,80
	c-4.7,8.3-15.4,11-23.6,6.3L47.8,305.2C39.5,300.5,36.8,289.9,41.5,281.6z"/>
<path class="st1" d="M87.6,203.2l-0.8-0.8l-9.1,16.1l258.8,230.8C336.5,449.4,87.6,203.2,87.6,203.2z"/>
<path class="st2" d="M408.6,495.5l45.7-80c4.7-8.3,2-18.9-6.3-23.6l-106.7-62.2l-66.6,107.9L385,501.8
	C393.2,506.5,403.8,503.7,408.6,495.5z"/>
<path class="st3" d="M293.6,406.8l-2,2.8l44.5,39.8L293.6,406.8z"/>
<path class="st0" d="M87.6,179.2l64.6-64.2c6.7-6.7,17.7-6.7,24.4,0l274.9,272.1c6.7,6.7,6.7,17.3,0,24l-64.6,64.2
	c-6.7,6.7-17.7,6.7-24.4,0L87.6,203.2C80.9,196.5,80.9,185.9,87.6,179.2z"/>
<path class="st1" d="M147.8,119.3l-15,14.6l173.3,259.9C306.2,393.8,147.8,119.3,147.8,119.3z"/>
<path class="st4" d="M451.5,411.2c6.7-6.7,6.7-17.3,0-24L358.1,295l-89.8,87l94.1,93.3c6.7,6.7,17.7,6.7,24.4,0
	C386.9,475.4,451.5,411.2,451.5,411.2z"/>
<path class="st0" d="M154.1,95.7l80-46.1c8.3-4.7,18.9-2,23.6,6.3l196.1,340.3c4.7,8.3,2,18.9-6.3,23.6l-80,46.1
	c-8.3,4.7-18.9,2-23.6-6.3L147.8,119.3C143.1,111.1,145.9,100.4,154.1,95.7z"/>
<path class="st5" d="M288,362.7l-1.6,1.6l19.7,29.5L288,362.7z"/>
<path class="st6" d="M368,466.3l80-46.1c8.3-4.7,11-15.4,6.3-23.6l-68.5-118.9l-108.3,67L344,460C349.1,468.3,359.7,471,368,466.3z"
	/>
<path class="st1" d="M240.8,56.7c-0.8-3.2-0.8-6.3,0-9.5c-2.4,0.4-4.3,1.2-6.7,2.4L218,59.1L329,382L240.8,56.7z M367.2,439.5h0.8
	v-0.4L367.2,439.5z"/>
<path class="st7" d="M367.2,439.5h0.8v-0.4L367.2,439.5z M312.9,322.6l-3.5,2.4l19.6,57L312.9,322.6z"/>
<path class="st0" d="M252.6,35.8l89-23.6c9.1-2.4,18.5,2.8,21.3,11.8l101.2,371.8c2.4,9.1-3.2,18.5-12.2,20.9l-89,23.6
	c-9.1,2.4-18.5-2.8-21.3-11.8L240.8,56.7C238,47.7,243.5,38.2,252.6,35.8z"/>
<path class="st0" d="M362.9,0h81.5c11.4,0,20.5,9.1,20.5,20.5v384.4c0,11.4-9.1,20.5-20.5,20.5h-81.5c-11.4,0-20.5-9.1-20.5-20.5
	V20.5C342.4,9.1,351.5,0,362.9,0z"/>
<path class="st8" d="M308.5,306.8l33.1,121.7c2.4,9.1,11.8,14.6,21.3,11.8l89-23.6c9.1-2.4,14.6-11.8,12.2-20.9L431,275.7
	L308.5,306.8z"/>
<path class="st1" d="M342.4,20.5c0-3.2,0.8-5.9,2-8.3c-0.8,0-2,0-2.8,0.4l-20.9,5.5L342.4,332V20.5z"/>
<path class="st9" d="M342.4,275.3v129.6c0,11.4,9.1,20.5,20.5,20.5h81.5c11.4,0,20.5-9.1,20.5-20.5V275.3H342.4z"/>
<path class="st10" d="M342.4,298.1l-2.4,0.8l2.4,33.1V298.1z"/>
<path class="st11" d="M362.1,295.4v19.7h67v-19.7H362.1z M362.1,397.8h27.6V386h-27.6V397.8z M362.1,370.2h27.6v-11.8h-27.6V370.2z
	 M362.1,342.6h27.6v-11.8h-27.6V342.6z M431,378.1c5.5,0,9.8,4.3,9.8,9.8s-4.3,9.8-9.8,9.8s-9.8-4.3-9.8-9.8S425.5,378.1,431,378.1z
	"/>
</svg>
